<?xml version="1.0" encoding="UTF-8"?>
<!DOCTYPE svg PUBLIC "-//W3C//DTD SVG 1.1//EN" "http://www.w3.org/Graphics/SVG/1.1/DTD/svg11.dtd">
<!-- Creator: CorelDRAW -->
<svg xmlns="http://www.w3.org/2000/svg" xml:space="preserve" width="1212px" height="1612px" version="1.1" style="shape-rendering:geometricPrecision; text-rendering:geometricPrecision; image-rendering:optimizeQuality; fill-rule:evenodd; clip-rule:evenodd"
viewBox="0 0 1212 1612.02"
 xmlns:xlink="http://www.w3.org/1999/xlink"
 xmlns:xodm="http://www.corel.com/coreldraw/odm/2003">
 <defs>
  <style type="text/css">
   <![CDATA[
    .fil0 {fill:currentColor}
   ]]>
  </style>
 </defs>
 <g id="Camada_x0020_1">
  <metadata id="CorelCorpID_0Corel-Layer"/>
  <path class="fil0" d="M330.81 606.18c0,-37.28 12.34,-83.13 24.09,-110.31 14.12,-32.67 32.83,-57.52 55.5,-82.01 9.27,-10.01 25.91,-23.12 37.36,-31.4 26.3,-18.99 61.64,-36.17 94.74,-42.78 80.61,-16.09 151.64,-5.72 217.77,40.19 33.53,23.27 31.4,26.08 54.22,48.92 7.84,7.86 8.82,9.59 15.16,19.22 43.25,65.66 61.65,136.32 43.68,216.25 -42.35,188.47 -255.82,278.42 -421.89,168.21 -72.42,-48.06 -120.63,-138.45 -120.63,-226.29zm246.32 -600.08l55.8 0c76.37,3.7 153.16,22.47 229.16,56.3 16.18,7.2 31.49,16.38 46.76,25.12 15.47,8.85 28.93,17.73 43.44,28.44l40.41 31.48c8.25,7.19 12.07,8.98 20.28,17.23 54.41,54.69 106.38,114.54 137.59,187.45 42.45,99.16 55.35,155.31 55.35,272.81 0,190.12 -141.56,437.58 -251.35,589.38 -47.15,65.19 -120.33,161.29 -176.07,220.86 -6.01,6.41 -5.74,7.58 -11.05,13.94l-107.69 114.22c-24.78,24.78 -37.22,40.25 -49.45,42.98l-7.8 0c-7.43,-1.64 -15.66,-7.91 -27.14,-19.53 -21.03,-21.28 -58.73,-56.29 -73.98,-76.04l-138.61 -158.31c-77.65,-95.16 -140.93,-183.32 -204.49,-289.32 -33.38,-55.68 -73.51,-135.85 -98.52,-198.39 -9.82,-24.54 -16.24,-46.19 -24.7,-72.19 -24.89,-76.43 -29.3,-126.45 -29.3,-208.23 0,-86.69 29.37,-173.86 56.3,-234.36 42.78,-96.13 116.08,-173.17 199.1,-235.33 14.29,-10.7 27.6,-19.27 43.67,-28.21 88.27,-49.11 179.75,-75.85 272.29,-80.3z"/>
 </g>
</svg>
